<svg xmlns="http://www.w3.org/2000/svg" width="513" height="46" fill="none"><path fill="#FFF" d="M10.414 6.342c-.887 3.501-1.729 6.692-1.817 7.09-.31 1.286-.532 2.128-1.906 7.002-.709 2.57-1.418 5.14-1.55 5.76-.267 1.374-.355 1.729-1.995 7.578a136.977 136.977 0 0 0-1.55 5.761c-.09.576-.532 2.038-.887 3.28C.31 44.008 0 45.16 0 45.337c0 .222 2.083.355 4.653.355H9.26l.444-1.684c.221-.887.487-2.039.62-2.526.133-.488 1.108-4.21 2.26-8.287 1.108-4.077 2.127-7.887 2.216-8.42.133-.575.664-2.525 1.152-4.342.532-1.817 1.418-5.14 1.994-7.312a1191.75 1191.75 0 0 1 2.171-8.198C20.738 2.62 21.27.582 21.27.36c0-.177-2.082-.31-4.608-.31h-4.564l-1.684 6.292ZM35.273.715c-2.481.886-4.786 2.88-5.938 5.184-.576 1.108-1.817 5.008-2.747 8.597a990.904 990.904 0 0 1-2.659 9.705c-.443 1.683-.93 3.633-1.063 4.298-.133.665-.31 1.374-.444 1.595-.133.222-.31.842-.443 1.463a141.35 141.35 0 0 1-.886 3.5c-.975 3.368-.886 6.559.133 8.243 1.462 2.393 2.127 2.437 30.177 2.304l25.48-.133 2.305-1.285c3.19-1.773 5.317-5.096 6.026-9.439.133-.665.443-1.772.665-2.393.266-.62.576-1.728.709-2.437.133-.709.842-3.412 1.55-5.982.754-2.57 1.419-5.185 1.552-5.761.133-.576.842-3.28 1.595-5.938C93.323 4.97 92.836 2.177 89.202.67 87.075-.216 37.8-.216 35.273.715Zm46.219 13.382c-2.482 9.084-4.52 16.75-5.185 19.498l-.709 2.792H52.866c-12.497 0-22.733-.133-22.733-.266 0-.222 6.292-23.84 6.913-26.012.221-.709 1.684-.753 22.998-.753h22.733l-1.285 4.741ZM104.623 1.468c.576.798 2.083 2.925 3.412 4.653l2.393 3.235h9.085c8.508 0 9.039.044 8.818.797-.177.444-2.26 8.287-4.697 17.415-2.438 9.085-4.565 16.928-4.698 17.327-.221.709.178.797 4.432.797h4.697l.266-1.24c.177-.665 2.348-8.774 4.83-18.036l4.476-16.839 13.825-.221 13.782-.222-3.324-4.564-3.323-4.52h-54.949l.975 1.418ZM217.888.715c-3.368 1.24-5.938 4.032-6.736 7.4l-.31 1.24h27.297c15.022 0 27.297.178 27.297.355 0 .222-.266 1.374-.621 2.57-.354 1.197-.886 3.014-1.152 4.033l-.487 1.905h-27.43c-15.111 0-27.474.089-27.474.178 0 .088-1.595 6.115-3.545 13.338-1.95 7.223-3.545 13.338-3.545 13.56 0 .221 2.082.399 4.608.399h4.609l.753-3.014c.399-1.64.842-3.368.931-3.855.354-1.418.399-1.64 1.196-4.21.399-1.33.798-2.924.931-3.545.088-.62.399-1.64.664-2.348l.488-1.197h22.6c12.407 0 22.599.133 22.599.355 0 .177-.398 1.728-.842 3.412-.487 1.728-.975 3.59-1.107 4.21-.133.62-.842 3.146-1.507 5.627l-1.285 4.565h9.483l.532-2.57c.31-1.374.709-3.014.974-3.634.222-.62.444-1.507.532-1.994.089-.488.399-1.773.709-2.88.31-1.109.665-2.35.754-2.748.31-1.285.531-2.127 1.905-7.002.709-2.57 1.418-5.14 1.551-5.76.266-1.241.31-1.418 1.817-6.869 1.905-6.868 1.374-10.192-1.906-11.521-2.215-.975-51.713-.93-54.283 0ZM290.96.759c-5.007 1.817-5.805 3.323-10.236 20.118-1.152 4.254-2.615 9.882-3.324 12.452-1.373 5.273-1.462 8.11-.266 9.882 1.64 2.526 1.241 2.482 32.571 2.482h28.759l.354-1.906c.399-2.171.266-1.684 1.152-4.742 1.241-4.165 3.856-13.914 4.077-15.066.089-.62.355-1.595.621-2.216.221-.62.531-1.64.709-2.348l.266-1.197H308.73l.842.975c.487.576 2.082 2.659 3.5 4.653l2.571 3.678H333.767l-.311 1.418c-.133.798-.443 1.95-.664 2.57-.222.62-.621 1.95-.887 2.97l-.487 1.905H285.908l.355-1.463a138.6 138.6 0 0 1 1.285-4.83c.532-1.905 1.064-3.766 1.152-4.21.31-1.285 2.039-7.843 2.216-8.552.133-.355.664-2.304 1.196-4.343l1.019-3.633h27.386c15.288 0 27.341-.178 27.253-.4-.045-.176-1.507-2.303-3.235-4.608L341.433.05l-24.372.044c-20.03 0-24.683.133-26.101.665ZM359.202.803c-.354 1.285-4.741 17.726-4.963 18.745-.221 1.152-.31 1.462-1.95 7.311-1.905 6.869-4.519 16.662-4.741 17.814-.222 1.02-.177 1.02 4.387 1.02h4.653l1.684-6.337c.93-3.457 2.437-9.173 3.368-12.718.93-3.545 2.703-10.104 3.899-14.624 1.197-4.52 2.304-8.685 2.437-9.305.089-.62.311-1.463.488-1.906.31-.709-.089-.753-4.343-.753-4.077 0-4.697.089-4.919.753ZM376.883 3.24c-.487 1.773-.886 3.413-.93 3.678-.089.222-.931 3.413-1.906 7.002a405.895 405.895 0 0 0-2.038 7.533 235.94 235.94 0 0 1-1.329 4.963c-1.108 3.988-2.837 10.503-3.102 11.743-.089.355-.355 1.33-.621 2.127-.221.798-.443 1.596-.443 1.773a30.94 30.94 0 0 1-.532 1.772c-.266.798-.399 1.551-.31 1.684.133.089 14.535.133 31.994.089l31.773-.133-3.324-4.564-3.368-4.52h-45.553l.62-2.083c.354-1.152.709-2.526.842-3.013.088-.488.886-3.501 1.772-6.647.842-3.19 1.64-6.16 1.773-6.647.089-.488.266-1.374.399-1.994.133-.62.443-1.596.664-2.216.488-1.152 3.59-12.895 3.59-13.427 0-.177-2.039-.31-4.564-.31h-4.565l-.842 3.19ZM449.823 4.127c-.576 2.26-1.152 4.387-1.285 4.653-.133.443 6.425.576 31.817.576 21.004 0 31.949-.133 31.816-.443-.044-.222-1.506-2.349-3.19-4.653L505.923.05h-55.037l-1.063 4.077ZM444.948 22.295c-.576 2.26-1.152 4.387-1.24 4.653-.178.443 6.381.576 31.949.576h32.172l-3.412-4.653-3.457-4.608-27.474-.045h-27.474l-1.064 4.077ZM439.941 40.907c-.665 2.481-1.152 4.608-1.064 4.653.045.088 14.446.088 31.95.044l31.817-.133-3.412-4.564-3.368-4.52H441.137l-1.196 4.52Z"/></svg>
