<svg width="523" height="101" viewBox="0 0 523 101" fill="none" xmlns="http://www.w3.org/2000/svg">
<g clip-path="url(#clip0_43_370)">
<path d="M51.6342 3.45701L48.2401 6.8511L51.6468 10.2578L55.0597 13.6707L55.638 13.0862L56.2225 12.5079L53.8341 10.1132L51.4456 7.71848L52.1685 7.75619C55.7762 7.96361 59.6732 8.7367 63.3124 9.97492C73.9598 13.589 82.8661 21.3766 87.9258 31.4771C90.0691 35.7574 91.4959 40.4212 92.1119 45.1603C92.3382 46.8888 92.4073 47.951 92.4387 50.1258C92.4827 53.105 92.3256 55.2358 91.8542 58.039C90.6474 65.2735 87.4356 72.3256 82.7467 78.0327C80.9679 80.2075 78.6989 82.4576 76.5242 84.2301C71.6091 88.2276 65.7574 91.144 59.6857 92.6085C57.1527 93.2245 54.9277 93.5701 52.3256 93.7461C51.2068 93.8216 47.0962 93.8404 25.506 93.8404H0V94.6575V95.4746L26.1282 95.4558C54.274 95.4369 52.4953 95.4558 55.0534 95.1352C69.7989 93.281 82.7404 84.0855 89.4155 70.7103C91.9296 65.6632 93.369 60.5846 93.9472 54.6827C94.1043 53.0422 94.1043 48.4287 93.9472 46.826C93.3438 40.7857 91.9359 35.8517 89.34 30.6726C87.4042 26.8134 85.0471 23.4319 82.049 20.2075C74.3809 11.9737 63.6581 6.86367 52.5267 6.14714L51.3451 6.07171L53.7838 3.633L56.2225 1.19428L55.6568 0.628596C55.3488 0.320614 55.0786 0.062914 55.0597 0.062914C55.0409 0.062914 53.5009 1.59026 51.6342 3.45701Z" fill="white"/>
<path d="M36.6437 7.88187C32.2251 9.23322 28.4224 11.012 24.7015 13.4821C20.9366 15.9774 17.3979 19.2081 14.5444 22.753C9.36522 29.1767 6.02141 37.1088 5.03461 45.3174C4.7832 47.423 4.74548 48.0767 4.74548 50.7543C4.74548 53.4381 4.7832 54.1044 5.03461 56.1911C5.80142 62.4953 7.87559 68.5041 11.1691 73.9347C14.9215 80.1257 20.1886 85.374 26.4048 89.1138L26.6311 89.2521L27.0145 88.5921C27.2282 88.2338 27.4042 87.907 27.4042 87.8756C27.4042 87.8442 27.1842 87.6807 26.9202 87.5173C22.8662 85.0095 19.2458 81.8668 16.2163 78.2213C12.0176 73.1679 8.91267 66.9014 7.44819 60.5343C6.20369 55.0975 6.00884 49.3589 6.88879 43.8718C8.00758 36.8699 10.8674 30.2326 15.2043 24.5758C17.2282 21.9359 19.8366 19.2646 22.4073 17.1842C26.1974 14.1232 30.7354 11.6028 35.2295 10.0629C36.3985 9.66063 37.9762 9.17665 38.1207 9.17665C38.2087 9.17665 38.2213 9.13894 38.1836 8.93781C38.1144 8.54183 37.8253 7.54246 37.7813 7.54875C37.7625 7.54875 37.2471 7.69959 36.6437 7.88187Z" fill="white"/>
<path d="M46.6059 15.7512C42.9541 16.0529 39.5663 16.8574 36.1408 18.2276C35.2483 18.5859 32.9981 19.6858 32.0805 20.2075C22.6524 25.6003 16.2602 34.9278 14.6763 45.6129C14.4061 47.4545 14.3621 48.127 14.3621 50.7229C14.3621 53.2433 14.3935 53.7776 14.6198 55.4683C15.9963 65.5438 21.5588 74.4187 30.0377 80.0378C31.4519 80.9806 32.4325 81.5463 33.8467 82.2439C37.8064 84.1924 41.5274 85.2421 46.1974 85.7449C47.4356 85.8769 51.6154 85.858 52.8913 85.7135C57.7813 85.1666 62.0742 83.8467 66.0843 81.6657C75.594 76.4928 82.1748 67.3288 83.9975 56.7254C84.3809 54.5004 84.4375 53.7399 84.4375 50.8486C84.4438 47.9888 84.3998 47.3225 84.0604 45.2043C83.017 38.6236 80.1509 32.5519 75.7008 27.4922C74.8712 26.5494 73.0359 24.7518 72.1245 23.985C67.7813 20.3521 63.0547 17.9385 57.6996 16.6311C56.7379 16.3923 56.5117 16.3483 55.4054 16.1534C52.6776 15.682 49.2961 15.5249 46.6059 15.7512ZM51.6656 17.3477C56.1283 17.6556 60.3834 18.8121 64.3306 20.7857C65.3552 21.3011 65.4934 21.3766 66.5305 21.9863C71.3451 24.8461 75.6003 29.1578 78.4036 34.029C80.8548 38.2842 82.2942 42.8725 82.7467 47.8316C82.9353 49.9372 82.8536 53.2873 82.5582 55.4055C81.5525 62.5205 78.3721 68.9881 73.3501 74.1296C69.5098 78.0579 65.286 80.7103 59.9309 82.5582C58.9944 82.8788 56.9893 83.413 56.034 83.5953C53.4947 84.0667 51.8479 84.2238 49.4029 84.2238C46.9642 84.2238 45.286 84.0604 42.7719 83.5953C41.8291 83.4193 40.0692 82.9479 38.9064 82.5645C29.8492 79.5915 22.3633 72.6965 18.5984 63.8781C16.8259 59.7235 15.9523 55.3803 15.9523 50.7543C15.9585 47.7876 16.2477 45.3803 16.9391 42.6148C18.2653 37.3037 20.8234 32.5079 24.5129 28.3847C30.2766 21.9485 38.4287 17.9511 46.9831 17.3539C48.0767 17.2785 50.6097 17.2785 51.6656 17.3477Z" fill="white"/>
<path d="M46.983 25.7386C43.4946 26.1597 40.3205 27.6682 37.7938 30.1257C36.8573 31.0371 36.1973 31.8354 35.5122 32.885C34.9591 33.7335 34.2992 35.0095 34.0163 35.7951L33.8278 36.298L32.4575 36.3357C31.0119 36.3797 30.6222 36.4237 29.6983 36.6751C27.8315 37.1842 26.2288 38.1207 24.8271 39.5286C23.8906 40.4714 23.3375 41.2257 22.7907 42.3319C22.2941 43.325 22.049 44.0164 21.829 45.0597C21.6719 45.7763 21.6593 45.9774 21.6593 47.1716C21.6593 48.5481 21.7096 48.9818 22.0113 50.0943C22.9352 53.4884 25.5939 56.3168 28.988 57.5047C30.0817 57.8819 30.9428 58.0264 32.4198 58.0579L33.7523 58.0956V60.088V62.0868L35.2168 63.2056C36.9579 64.5443 37.9698 65.3237 38.2966 65.5814L38.5418 65.7763L38.5481 66.5305C38.5606 67.2345 38.5732 67.3099 38.7618 67.7122C39.1263 68.479 39.8743 69.1075 40.6788 69.3275C40.8611 69.3715 41.2068 69.3966 41.565 69.3778C42.0741 69.3589 42.2061 69.3275 42.6272 69.1264C43.79 68.5733 44.4751 67.291 44.2552 66.0654C43.878 63.9661 41.5462 62.9479 39.7926 64.1169L39.4154 64.3684L37.9195 63.2244C37.0961 62.5896 36.191 61.8919 35.9082 61.6719L35.3865 61.2634V59.6669V58.0767H41.6719H47.9572V63.7272V69.3715L47.5361 69.5789C46.4047 70.1383 45.7322 71.4142 45.9333 72.6022C46.1596 73.9221 47.115 74.8586 48.4161 75.0409C49.6354 75.2106 50.8422 74.5569 51.4016 73.4193C51.6342 72.9542 51.6342 72.9353 51.6342 72.1873C51.6342 71.4331 51.6342 71.4205 51.3953 70.9366C51.0371 70.2137 50.3771 69.6229 49.7046 69.4281C49.5977 69.3966 49.5914 69.0698 49.5914 63.7335V58.0767H55.7825H61.9736V59.6795V61.276L61.5525 61.6154C60.8988 62.1308 58.1709 64.2112 58.0327 64.2992C57.9258 64.3684 57.8692 64.3495 57.599 64.1547C56.9956 63.721 56.1722 63.545 55.4557 63.6958C54.8334 63.8215 54.3369 64.0792 53.9283 64.4878C52.6335 65.7826 52.8472 67.9259 54.3683 68.9441C56.0151 70.044 58.2841 69.1641 58.768 67.2408C58.812 67.0773 58.8309 66.6877 58.8246 66.3734L58.7995 65.7951L59.5223 65.242C59.9183 64.934 60.9931 64.1107 61.9107 63.4004L63.5763 62.1245L63.5952 60.1069L63.6078 58.0893L65.1037 58.0579C66.2979 58.0327 66.7253 58.0013 67.2533 57.8944C71.6216 56.9831 74.9214 53.6958 75.8642 49.3024C76.0591 48.3973 76.1093 46.6059 75.9585 45.6631C75.7385 44.2489 75.3551 43.1113 74.6826 41.8982C73.8718 40.4211 72.3758 38.8561 70.9114 37.9384C70.4902 37.6744 69.4657 37.1716 68.988 36.9956C67.7247 36.5242 66.5745 36.3294 64.9968 36.3294H63.878L63.6706 35.7763C62.9478 33.8592 61.6216 31.8354 60.088 30.308C57.5235 27.7499 54.2552 26.1597 50.6914 25.7386C49.7108 25.6254 47.9509 25.6254 46.983 25.7386ZM51.2005 27.4607C56.4739 28.3533 60.7919 32.0993 62.4387 37.2219L62.6775 37.951L64.6323 37.9824C66.3419 38.0076 66.6624 38.0264 67.1276 38.1396C68.0138 38.3596 68.4412 38.5167 69.296 38.9378C71.8353 40.1949 73.6518 42.5456 74.2614 45.3803C74.3997 46.0403 74.4563 47.6242 74.362 48.347C74.0855 50.4651 73.1427 52.3256 71.5965 53.8215C70.1948 55.1729 68.5983 55.99 66.7064 56.3168C65.9899 56.4425 65.7196 56.4425 48.8372 56.4425C30.5531 56.4425 31.3387 56.4551 30.2011 56.1534C27.8692 55.5437 25.8516 54.0352 24.5946 51.9799C23.1238 49.5789 22.8472 46.4928 23.8655 43.9032C24.8774 41.3262 26.9956 39.2898 29.5537 38.4413C30.7605 38.039 30.9616 38.0139 33.0798 37.9824C34.4751 37.9636 35.022 37.9321 35.0408 37.8819C35.3111 36.9956 35.5877 36.2351 35.8516 35.6443C37.2156 32.6085 39.7423 30.0503 42.8284 28.5984C44.0792 28.0076 45.8579 27.5047 47.2721 27.3476C48.1395 27.247 50.3205 27.3099 51.2005 27.4607ZM41.7662 65.3112C42.1118 65.4054 42.5204 65.8266 42.6147 66.1848C42.709 66.5368 42.621 66.9956 42.3947 67.291C42.0616 67.731 41.345 67.8819 40.8171 67.6305C40.044 67.2533 39.9308 66.0591 40.6159 65.5311C40.9679 65.2672 41.345 65.198 41.7662 65.3112ZM56.6939 65.5186C57.3476 65.9523 57.379 67.0459 56.7442 67.5299C55.6065 68.3973 54.1169 66.9579 54.9403 65.7951C55.33 65.2483 56.1031 65.1289 56.6939 65.5186ZM49.384 71.0685C49.516 71.1377 49.7108 71.32 49.8303 71.4897C50.2137 72.0616 50.0628 72.841 49.4846 73.2181C49.2394 73.3816 49.1326 73.413 48.812 73.413C48.3406 73.413 48.0075 73.2433 47.7435 72.8599C47.5864 72.6336 47.555 72.5393 47.555 72.2062C47.5613 71.7725 47.6555 71.5274 47.9384 71.2634C48.3218 70.8988 48.9 70.8234 49.384 71.0685Z" fill="white"/>
<path d="M47.7687 37.1716C45.3111 37.4921 43.2935 38.3092 41.3262 39.7863C40.7103 40.2514 39.472 41.4142 39.472 41.5273C39.472 41.5651 39.7297 41.829 40.0503 42.1056L40.6223 42.6084L41.2508 42.0113C43.413 39.956 45.9397 38.8686 48.8372 38.7429C52.0428 38.5984 55.11 39.7926 57.4419 42.093C58.0264 42.6713 58.0327 42.6713 58.1773 42.5644C58.5418 42.2879 59.1389 41.7599 59.1703 41.6845C59.2206 41.5651 58.7492 41.0308 58.0516 40.4211C56.0968 38.7115 54.0541 37.731 51.4771 37.2659C50.5908 37.1025 48.6675 37.0585 47.7687 37.1716Z" fill="white"/>
<path d="M48.4601 40.9555C48.3721 40.968 48.0893 41.012 47.8316 41.0497C46.0025 41.3137 44.0478 42.3194 42.6902 43.6959L42.2313 44.161L42.8284 44.6764C43.1553 44.9592 43.4507 45.1918 43.4758 45.1918C43.5073 45.1918 43.6958 45.0158 43.9032 44.8084C44.3558 44.3496 45.0283 43.8342 45.5751 43.5325C48.6487 41.8417 52.3445 42.3948 54.802 44.8964L55.2043 45.3049L55.8077 44.8021C56.1408 44.5255 56.4174 44.2741 56.4299 44.249C56.4677 44.161 55.1289 42.9416 54.5695 42.5582C53.5073 41.8354 52.2816 41.3326 50.9617 41.0749C50.4651 40.9743 48.7932 40.8989 48.4601 40.9555Z" fill="white"/>
<path d="M48.5921 44.8774C47.7939 44.9906 46.9328 45.3237 46.2603 45.7763C45.9586 45.9837 45.1289 46.7505 45.1289 46.8322C45.1289 46.8762 46.2917 47.8316 46.3546 47.8316C46.3734 47.8316 46.5305 47.6996 46.7002 47.5299C48.1522 46.1031 50.5092 46.1282 51.9611 47.5864L52.3131 47.9447L52.9353 47.467C53.2747 47.2093 53.5513 46.9579 53.5513 46.9202C53.5513 46.8196 52.709 46.0151 52.3382 45.7637C51.9045 45.4683 51.1691 45.1414 50.6349 45.0032C50.0692 44.8586 49.139 44.802 48.5921 44.8774Z" fill="white"/>
<path d="M49.0447 48.8372C48.1521 49.0195 47.5362 49.7235 47.4733 50.6474C47.4356 51.1754 47.599 51.6531 47.9636 52.0616C48.7053 52.9101 50.1006 52.9101 50.8423 52.0616C51.7097 51.0811 51.4205 49.5852 50.264 49.0321C49.824 48.8246 49.4344 48.7618 49.0447 48.8372Z" fill="white"/>
<path d="M93.5386 89.3904L92.9604 89.9749L94.8962 91.9045L96.8258 93.8404H85.5562H74.2928V94.6575V95.4746H85.5562H96.8258L94.8774 97.4231L92.9289 99.3715L93.5135 99.9498L94.0917 100.534L97.0333 97.5928L99.9685 94.6575L97.0458 91.7348L94.1169 88.8058L93.5386 89.3904Z" fill="white"/>
</g>
<path d="M131.133 36.9534C130.441 39.6874 129.783 42.1792 129.714 42.4907C129.472 43.4943 129.299 44.1519 128.226 47.9588C127.672 49.966 127.118 51.9733 127.015 52.4578C126.807 53.5306 126.738 53.8075 125.457 58.3758C124.869 60.383 124.35 62.4249 124.246 62.8748C124.177 63.3247 123.831 64.4668 123.554 65.4358C123.242 66.3702 123 67.27 123 67.4084C123 67.5815 124.627 67.6853 126.634 67.6853H130.233L130.579 66.3702C130.752 65.678 130.96 64.7782 131.064 64.3975C131.167 64.0169 131.929 61.1098 132.829 57.9259C133.694 54.7419 134.49 51.7656 134.559 51.3503C134.663 50.9004 135.078 49.3777 135.459 47.9588C135.874 46.5398 136.566 43.9442 137.016 42.2484C137.466 40.518 138.228 37.6456 138.712 35.846C139.197 34.0463 139.612 32.4544 139.612 32.2813C139.612 32.1429 137.985 32.0391 136.013 32.0391H132.448L131.133 36.9534Z" fill="white"/>
<path d="M150.548 32.5582C148.61 33.2504 146.81 34.8077 145.91 36.6073C145.461 37.4725 144.492 40.518 143.765 43.3213C143.003 46.1591 142.069 49.5507 141.688 50.9004C141.342 52.2155 140.961 53.7383 140.858 54.2574C140.754 54.7765 140.615 55.3303 140.512 55.5033C140.408 55.6763 140.269 56.1608 140.166 56.6454C140.062 57.0953 139.75 58.3411 139.473 59.3794C138.712 62.0096 138.781 64.5014 139.577 65.8165C140.719 67.6853 141.238 67.7199 163.145 67.6161L183.045 67.5123L184.844 66.5086C187.336 65.1243 188.997 62.5287 189.551 59.1371C189.655 58.618 189.897 57.7528 190.07 57.2683C190.278 56.7838 190.52 55.9186 190.624 55.3649C190.728 54.8111 191.282 52.7 191.835 50.6928C192.424 48.6855 192.943 46.6436 193.047 46.1937C193.15 45.7438 193.704 43.6328 194.292 41.5563C195.884 35.8806 195.504 33.7003 192.666 32.5236C191.005 31.8314 152.521 31.8314 150.548 32.5582ZM186.644 43.0098C184.706 50.1044 183.114 56.0916 182.595 58.2373L182.041 60.4176H164.287C154.528 60.4176 146.533 60.3138 146.533 60.21C146.533 60.0369 151.448 41.5909 151.932 39.8951C152.105 39.3414 153.247 39.3068 169.894 39.3068H187.648L186.644 43.0098Z" fill="white"/>
<path d="M204.709 33.1465C205.159 33.7695 206.336 35.4307 207.374 36.7804L209.243 39.3068H216.338C222.982 39.3068 223.398 39.3414 223.225 39.9297C223.086 40.2758 221.46 46.4014 219.556 53.5306C217.653 60.6253 215.992 66.7509 215.888 67.0624C215.715 67.6161 216.026 67.6853 219.349 67.6853H223.017L223.225 66.7163C223.363 66.1972 225.059 59.8639 226.997 52.6308L230.492 39.4798L241.29 39.3068L252.053 39.1337L249.457 35.5691L246.862 32.0391H225.405H203.948L204.709 33.1465Z" fill="white"/>
<path d="M293.167 32.5582C290.537 33.5272 288.53 35.7075 287.907 38.3377L287.665 39.3068H308.983C320.715 39.3068 330.302 39.4452 330.302 39.5836C330.302 39.7567 330.094 40.6565 329.817 41.5909C329.54 42.5253 329.125 43.9442 328.917 44.7402L328.537 46.2284H307.114C295.313 46.2284 285.658 46.2976 285.658 46.3668C285.658 46.436 284.412 51.1427 282.889 56.7838C281.366 62.4249 280.12 67.2008 280.12 67.3738C280.12 67.5469 281.747 67.6853 283.719 67.6853H287.319L287.907 65.332C288.219 64.0515 288.565 62.7018 288.634 62.3211C288.911 61.2136 288.945 61.0406 289.568 59.0333C289.88 57.9951 290.191 56.7492 290.295 56.2647C290.364 55.7802 290.606 54.9842 290.814 54.4304L291.195 53.496H308.845C318.535 53.496 326.495 53.5999 326.495 53.7729C326.495 53.9113 326.183 55.1226 325.837 56.4377C325.457 57.7874 325.076 59.241 324.972 59.7255C324.868 60.21 324.315 62.1826 323.796 64.1207L322.792 67.6853H326.495H330.198L330.613 65.678C330.856 64.6052 331.167 63.3247 331.375 62.8402C331.548 62.3557 331.721 61.6635 331.79 61.2828C331.859 60.9021 332.101 59.8985 332.344 59.0333C332.586 58.1681 332.863 57.1991 332.932 56.8876C333.174 55.884 333.347 55.2264 334.42 51.4196C334.974 49.4123 335.528 47.405 335.631 46.9205C335.839 45.9515 335.874 45.8131 337.05 41.5563C338.539 36.192 338.123 33.5964 335.562 32.5582C333.832 31.7968 295.175 31.8314 293.167 32.5582Z" fill="white"/>
<path d="M350.236 32.5928C346.325 34.0117 345.702 35.1884 342.242 48.3048C341.342 51.6272 340.2 56.0224 339.646 58.0296C338.573 62.148 338.504 64.3629 339.438 65.7472C340.719 67.7199 340.407 67.6853 364.875 67.6853H387.336L387.613 66.1971C387.924 64.5013 387.82 64.882 388.512 62.4941C389.481 59.2409 391.523 51.6272 391.696 50.7274C391.766 50.2428 391.973 49.4815 392.181 48.997C392.354 48.5124 392.596 47.7165 392.735 47.1627L392.942 46.2283H378.511H364.114L364.771 46.9897C365.152 47.4396 366.398 49.0662 367.505 50.6235L369.513 53.496H376.573H383.667L383.425 54.6034C383.321 55.2264 383.079 56.1262 382.906 56.6107C382.733 57.0952 382.421 58.1335 382.214 58.9294L381.833 60.4176H364.079H346.291L346.568 59.2755C346.706 58.6872 347.156 56.9568 347.571 55.5033C347.986 54.0151 348.402 52.5616 348.471 52.2155C348.713 51.2119 350.063 46.0899 350.201 45.5362C350.305 45.2593 350.721 43.7365 351.136 42.1446L351.932 39.3067H373.32C385.259 39.3067 394.673 39.1683 394.603 38.9952C394.569 38.8568 393.427 37.1956 392.077 35.396L389.654 32.039L370.62 32.0737C354.977 32.0737 351.343 32.1775 350.236 32.5928Z" fill="white"/>
<path d="M403.532 32.6274C403.255 33.6311 399.829 46.4706 399.656 47.2666C399.483 48.1664 399.414 48.4087 398.133 52.9769C396.645 58.3411 394.603 65.9895 394.43 66.8893C394.257 67.6853 394.292 67.6853 397.857 67.6853H401.49L402.806 62.7364C403.532 60.0369 404.709 55.5725 405.436 52.8039C406.163 50.0352 407.547 44.9133 408.481 41.3832C409.416 37.8532 410.281 34.6001 410.385 34.1156C410.454 33.6311 410.627 32.9735 410.765 32.6274C411.008 32.0737 410.696 32.0391 407.374 32.0391C404.19 32.0391 403.705 32.1083 403.532 32.6274Z" fill="white"/>
<path d="M417.341 34.5308C416.96 35.9151 416.649 37.1956 416.614 37.4033C416.545 37.5763 415.887 40.0681 415.126 42.8714C414.33 45.7092 413.638 48.3394 413.534 48.7547C413.43 49.17 412.98 50.9004 412.496 52.6308C411.631 55.7455 410.281 60.8329 410.073 61.8019C410.004 62.0788 409.796 62.8402 409.589 63.4631C409.416 64.086 409.243 64.709 409.243 64.8474C409.208 64.9859 409.035 65.6088 408.827 66.2317C408.62 66.8547 408.516 67.443 408.585 67.5468C408.689 67.6161 419.936 67.6507 433.572 67.6161L458.386 67.5122L455.79 63.9476L453.16 60.4176H435.372H417.583L418.068 58.791C418.345 57.8912 418.621 56.8184 418.725 56.4377C418.794 56.057 419.417 53.7037 420.11 51.2465C420.767 48.7547 421.39 46.436 421.494 46.0553C421.563 45.6746 421.701 44.9824 421.805 44.4979C421.909 44.0134 422.151 43.252 422.324 42.7675C422.705 41.8677 425.128 32.6966 425.128 32.2813C425.128 32.1429 423.536 32.0391 421.563 32.0391H417.998L417.341 34.5308Z" fill="white"/>
<path d="M474.306 35.223C473.856 36.988 473.406 38.6492 473.302 38.8569C473.198 39.2029 478.32 39.3068 498.151 39.3068C514.555 39.3068 523.103 39.2029 522.999 38.9607C522.964 38.7876 521.822 37.1265 520.507 35.3268L518.119 32.0391H496.628H475.136L474.306 35.223Z" fill="white"/>
<path d="M470.499 49.4122C470.049 51.1772 469.599 52.8384 469.53 53.0461C469.391 53.3921 474.513 53.496 494.482 53.496H519.608L516.943 49.8621L514.243 46.2629L492.786 46.2283H471.329L470.499 49.4122Z" fill="white"/>
<path d="M466.588 63.9476C466.069 65.8857 465.688 67.5468 465.757 67.5815C465.792 67.6507 477.04 67.6507 490.71 67.6161L515.558 67.5122L512.893 63.9476L510.263 60.4176H488.876H467.522L466.588 63.9476Z" fill="white"/>
<defs>
<clipPath id="clip0_43_370">
<rect width="100" height="100.566" fill="white"/>
</clipPath>
</defs>
</svg>
